<svg width="50" height="37" viewBox="0 0 50 37" fill="none" xmlns="http://www.w3.org/2000/svg">
<path d="M49.1491 4.98934L18.389 36.141C18.1211 36.4133 17.8027 36.6293 17.4522 36.7767C17.1017 36.9241 16.7259 37 16.3463 37C15.9668 37 15.591 36.9241 15.2404 36.7767C14.8899 36.6293 14.5716 36.4133 14.3036 36.141L0.846099 22.5122C0.577853 22.2405 0.365068 21.918 0.219894 21.563C0.0747199 21.2081 3.99718e-09 20.8277 0 20.4435C-3.99718e-09 20.0593 0.0747199 19.6789 0.219894 19.3239C0.365068 18.969 0.577853 18.6465 0.846099 18.3748C1.11435 18.1032 1.4328 17.8877 1.78328 17.7407C2.13376 17.5936 2.50941 17.518 2.88876 17.518C3.26812 17.518 3.64376 17.5936 3.99424 17.7407C4.34473 17.8877 4.66318 18.1032 4.93143 18.3748L16.3487 29.9375L45.0686 0.856869C45.6103 0.308225 46.3451 0 47.1112 0C47.8774 0 48.6121 0.308225 49.1539 0.856869C49.6956 1.40551 50 2.14964 50 2.92554C50 3.70144 49.6956 4.44556 49.1539 4.9942L49.1491 4.98934Z" fill="#EC7404"/>
</svg>
