<svg width="53" height="53" viewBox="0 0 53 53" fill="none" xmlns="http://www.w3.org/2000/svg">
<path d="M39.7507 15.8118C39.6182 15.7897 39.4637 15.7897 39.3312 15.8118C36.2837 15.7013 33.8545 13.2059 33.8545 10.1143C33.8545 6.95634 36.3941 4.41675 39.552 4.41675C42.7099 4.41675 45.2495 6.97842 45.2495 10.1143C45.2274 13.2059 42.7982 15.7013 39.7507 15.8118Z" stroke="#EC7404" stroke-width="3.3125" stroke-linecap="round" stroke-linejoin="round"/>
<path d="M37.4769 31.8885C40.5023 32.3964 43.8369 31.8664 46.1777 30.2985C49.2915 28.2227 49.2915 24.8219 46.1777 22.746C43.8148 21.1781 40.4361 20.6481 37.4106 21.1781" stroke="#EC7404" stroke-width="3.3125" stroke-linecap="round" stroke-linejoin="round"/>
<path d="M13.1848 15.8118C13.3173 15.7897 13.4719 15.7897 13.6044 15.8118C16.6519 15.7013 19.081 13.2059 19.081 10.1143C19.081 6.95634 16.5415 4.41675 13.3835 4.41675C10.2256 4.41675 7.68604 6.97842 7.68604 10.1143C7.70812 13.2059 10.1373 15.7013 13.1848 15.8118Z" stroke="#EC7404" stroke-width="3.3125" stroke-linecap="round" stroke-linejoin="round"/>
<path d="M15.4595 31.8885C12.4341 32.3964 9.09949 31.8664 6.75865 30.2985C3.6449 28.2227 3.6449 24.8219 6.75865 22.746C9.12157 21.1781 12.5003 20.6481 15.5257 21.1781" stroke="#EC7404" stroke-width="3.3125" stroke-linecap="round" stroke-linejoin="round"/>
<path d="M26.4998 32.3078C26.3673 32.2858 26.2127 32.2858 26.0802 32.3078C23.0327 32.1974 20.6035 29.702 20.6035 26.6103C20.6035 23.4524 23.1431 20.9128 26.301 20.9128C29.4589 20.9128 31.9985 23.4745 31.9985 26.6103C31.9764 29.702 29.5473 32.2195 26.4998 32.3078Z" stroke="#EC7404" stroke-width="3.3125" stroke-linecap="round" stroke-linejoin="round"/>
<path d="M32.9251 39.2642C29.4139 36.9233 23.606 36.9233 20.0726 39.2642C16.9589 41.34 16.9589 44.7408 20.0726 46.8167C23.606 49.1796 29.3918 49.1796 32.9251 46.8167" stroke="#EC7404" stroke-width="3.3125" stroke-linecap="round" stroke-linejoin="round"/>
</svg>
