<svg width="49" height="49" viewBox="0 0 49 49" fill="none" xmlns="http://www.w3.org/2000/svg">
<path d="M8.69751 22.4991V32.6462C8.69751 36.362 8.69751 36.362 12.2092 38.7304L21.8663 44.3041C23.3158 45.1412 25.6842 45.1412 27.1338 44.3041L36.7908 38.7304C40.3025 36.362 40.3025 36.362 40.3025 32.6462V22.4991C40.3025 18.7833 40.3025 18.7833 36.7908 16.4149L27.1338 10.8412C25.6842 10.0041 23.3158 10.0041 21.8663 10.8412L12.2092 16.4149C8.69751 18.7833 8.69751 18.7833 8.69751 22.4991Z" stroke="#333333" stroke-width="1.5" stroke-linecap="round" stroke-linejoin="round"/>
<path d="M35.7291 15.5778V10.2083C35.7291 6.12492 33.6874 4.08325 29.6041 4.08325H19.3958C15.3124 4.08325 13.2708 6.12492 13.2708 10.2083V15.4349" stroke="#333333" stroke-width="1.5" stroke-linecap="round" stroke-linejoin="round"/>
<path d="M25.7864 22.438L26.9501 24.255C27.1339 24.5409 27.5422 24.8267 27.8485 24.9084L29.931 25.4392C31.2172 25.7659 31.5643 26.8684 30.7272 27.8892L29.3593 29.543C29.1551 29.8084 28.9918 30.278 29.0122 30.6046L29.1347 32.7484C29.2164 34.0755 28.2772 34.7492 27.0522 34.2592L25.0514 33.463C24.7451 33.3405 24.2347 33.3405 23.9285 33.463L21.9276 34.2592C20.7026 34.7492 19.7635 34.055 19.8451 32.7484L19.9676 30.6046C19.988 30.278 19.8247 29.788 19.6205 29.543L18.2526 27.8892C17.4155 26.8684 17.7626 25.7659 19.0489 25.4392L21.1314 24.9084C21.458 24.8267 21.8664 24.5205 22.0297 24.255L23.1935 22.438C23.9285 21.3355 25.0718 21.3355 25.7864 22.438Z" stroke="#333333" stroke-width="1.5" stroke-linecap="round" stroke-linejoin="round"/>
</svg>
