<svg width="161" height="165" viewBox="0 0 161 165" fill="none" xmlns="http://www.w3.org/2000/svg">
<rect width="161" height="165" rx="30" fill="url(#paint0_linear_512_424)"/>
<path fill-rule="evenodd" clip-rule="evenodd" d="M66.1923 54.7857C66.1923 57.5421 65.0618 60.1855 63.0493 62.1346C61.0369 64.0836 58.3075 65.1786 55.4615 65.1786C52.6156 65.1786 49.8861 64.0836 47.8737 62.1346C45.8613 60.1855 44.7308 57.5421 44.7308 54.7857C44.7308 52.0294 45.8613 49.3859 47.8737 47.4369C49.8861 45.4878 52.6156 44.3929 55.4615 44.3929C58.3075 44.3929 61.0369 45.4878 63.0493 47.4369C65.0618 49.3859 66.1923 52.0294 66.1923 54.7857ZM76.9231 54.7857C76.9231 60.2984 74.662 65.5854 70.6371 69.4834C66.6123 73.3815 61.1535 75.5714 55.4615 75.5714C49.7696 75.5714 44.3108 73.3815 40.2859 69.4834C36.2611 65.5854 34 60.2984 34 54.7857C34 49.273 36.2611 43.9861 40.2859 40.088C44.3108 36.1899 49.7696 34 55.4615 34C61.1535 34 66.6123 36.1899 70.6371 40.088C74.662 43.9861 76.9231 49.273 76.9231 54.7857ZM105.538 92.8929C108.384 92.8929 111.114 91.7979 113.126 89.8489C115.139 87.8998 116.269 85.2564 116.269 82.5C116.269 79.7436 115.139 77.1002 113.126 75.1511C111.114 73.2021 108.384 72.1071 105.538 72.1071C102.692 72.1071 99.9631 73.2021 97.9507 75.1511C95.9383 77.1002 94.8077 79.7436 94.8077 82.5C94.8077 85.2564 95.9383 87.8998 97.9507 89.8489C99.9631 91.7979 102.692 92.8929 105.538 92.8929ZM105.538 103.286C111.23 103.286 116.689 101.096 120.714 97.1977C124.739 93.2996 127 88.0127 127 82.5C127 76.9873 124.739 71.7004 120.714 67.8023C116.689 63.9042 111.23 61.7143 105.538 61.7143C99.8465 61.7143 94.3877 63.9042 90.3629 67.8023C86.338 71.7004 84.0769 76.9873 84.0769 82.5C84.0769 88.0127 86.338 93.2996 90.3629 97.1977C94.3877 101.096 99.8465 103.286 105.538 103.286ZM55.4615 120.607C58.3075 120.607 61.0369 119.512 63.0493 117.563C65.0618 115.614 66.1923 112.971 66.1923 110.214C66.1923 107.458 65.0618 104.814 63.0493 102.865C61.0369 100.916 58.3075 99.8214 55.4615 99.8214C52.6156 99.8214 49.8861 100.916 47.8737 102.865C45.8613 104.814 44.7308 107.458 44.7308 110.214C44.7308 112.971 45.8613 115.614 47.8737 117.563C49.8861 119.512 52.6156 120.607 55.4615 120.607ZM55.4615 131C61.1535 131 66.6123 128.81 70.6371 124.912C74.662 121.014 76.9231 115.727 76.9231 110.214C76.9231 104.702 74.662 99.4146 70.6371 95.5166C66.6123 91.6185 61.1535 89.4286 55.4615 89.4286C49.7696 89.4286 44.3108 91.6185 40.2859 95.5166C36.2611 99.4146 34 104.702 34 110.214C34 115.727 36.2611 121.014 40.2859 124.912C44.3108 128.81 49.7696 131 55.4615 131Z" fill="#F7F4F2"/>
<defs>
<linearGradient id="paint0_linear_512_424" x1="10.0104" y1="7.0291" x2="177.462" y2="32.3792" gradientUnits="userSpaceOnUse">
<stop stop-color="#EC7404"/>
<stop offset="1" stop-color="#FF9838" stop-opacity="0.85"/>
</linearGradient>
</defs>
</svg>
