<svg width="161" height="165" viewBox="0 0 161 165" fill="none" xmlns="http://www.w3.org/2000/svg">
<rect width="161" height="165" rx="30" fill="url(#paint0_linear_447_1066)"/>
<path d="M81.6123 100.375V108.95" stroke="#F7F4F2" stroke-width="6.125" stroke-linecap="round" stroke-linejoin="round"/>
<path d="M61.1953 122.833H102.029V118.75C102.029 114.258 98.3536 110.583 93.862 110.583H69.362C64.8703 110.583 61.1953 114.258 61.1953 118.75V122.833V122.833Z" stroke="#F7F4F2" stroke-width="6.125" stroke-miterlimit="10"/>
<path d="M57.1123 122.833H106.112" stroke="#F7F4F2" stroke-width="6.125" stroke-linecap="round" stroke-linejoin="round"/>
<path d="M81.0003 98.3333C65.1978 98.3333 52.417 85.5525 52.417 69.75V57.5C52.417 48.4758 59.7262 41.1666 68.7503 41.1666H93.2503C102.274 41.1666 109.584 48.4758 109.584 57.5V69.75C109.584 85.5525 96.8028 98.3333 81.0003 98.3333Z" stroke="#F7F4F2" stroke-width="6.125" stroke-linecap="round" stroke-linejoin="round"/>
<path d="M54.3359 80.5713C51.2734 79.5913 48.5784 77.7946 46.4551 75.6713C42.7801 71.5879 40.3301 66.6879 40.3301 60.9713C40.3301 55.2546 44.8217 50.7629 50.5384 50.7629H53.1926C52.3759 52.6413 51.9676 54.7238 51.9676 56.8879V69.1379C51.9676 73.2213 52.8251 77.0596 54.3359 80.5713Z" stroke="#F7F4F2" stroke-width="6.125" stroke-linecap="round" stroke-linejoin="round"/>
<path d="M107.663 80.5713C110.726 79.5913 113.421 77.7946 115.544 75.6713C119.219 71.5879 121.669 66.6879 121.669 60.9713C121.669 55.2546 117.177 50.7629 111.461 50.7629H108.806C109.623 52.6413 110.031 54.7238 110.031 56.8879V69.1379C110.031 73.2213 109.174 77.0596 107.663 80.5713Z" stroke="#F7F4F2" stroke-width="6.125" stroke-linecap="round" stroke-linejoin="round"/>
<defs>
<linearGradient id="paint0_linear_447_1066" x1="10.0104" y1="7.0291" x2="177.462" y2="32.3792" gradientUnits="userSpaceOnUse">
<stop stop-color="#EC7404"/>
<stop offset="1" stop-color="#FF9838" stop-opacity="0.85"/>
</linearGradient>
</defs>
</svg>
