<svg width="596" height="279" viewBox="0 0 596 279" fill="none" xmlns="http://www.w3.org/2000/svg">
<path d="M35.2725 18.5613V263.279H595.531" stroke="#252322" stroke-width="0.632346"/>
<path d="M61.1875 276.002V269.877H62.0703L64.1925 275.039H64.218L66.3402 269.877H67.223V276.002H66.51V271.27H66.4845L64.5278 276.002H63.8827L61.926 271.27H61.9005V276.002H61.1875ZM69.4598 276.087C68.5812 276.087 67.9913 275.556 67.9913 274.754V274.746C67.9913 273.994 68.577 273.523 69.5914 273.464L70.8563 273.392V273.022C70.8563 272.483 70.504 272.157 69.8885 272.157C69.3198 272.157 68.9632 272.428 68.8784 272.823L68.8699 272.861H68.1568L68.1611 272.815C68.2247 272.089 68.8571 271.503 69.897 271.503C70.9411 271.503 71.5948 272.067 71.5948 272.95V276.002H70.8563V275.285H70.8393C70.5804 275.769 70.0498 276.087 69.4598 276.087ZM68.7468 274.754C68.7468 275.179 69.0948 275.446 69.6254 275.446C70.3215 275.446 70.8563 274.966 70.8563 274.326V273.965L69.6763 274.037C69.0863 274.071 68.7468 274.334 68.7468 274.746V274.754ZM72.5328 276.002V271.588H73.2713V272.335H73.2883C73.4369 271.826 73.8189 271.503 74.3155 271.503C74.4428 271.503 74.5531 271.524 74.6126 271.533V272.25C74.5531 272.229 74.3961 272.208 74.2178 272.208C73.6448 272.208 73.2713 272.607 73.2713 273.277V276.002H72.5328ZM77.0149 276.002V275.476L79.1711 273.226C79.9987 272.365 80.1897 272.034 80.1897 271.524V271.516C80.1855 270.892 79.7144 270.442 79.048 270.442C78.284 270.442 77.7152 270.968 77.7152 271.626V271.647H76.9767V271.622C76.9767 270.561 77.8935 269.776 79.0353 269.776C80.143 269.776 80.9537 270.518 80.9537 271.478V271.486C80.9537 272.157 80.6439 272.662 79.5191 273.812L78.0633 275.306V275.323H81.0556V276.002H77.0149ZM84.0734 276.104C82.6642 276.104 81.8281 274.886 81.8281 272.942V272.933C81.8281 270.989 82.6642 269.776 84.0734 269.776C85.4825 269.776 86.3272 270.989 86.3272 272.933V272.942C86.3272 274.886 85.4825 276.104 84.0734 276.104ZM84.0734 275.438C85.0072 275.438 85.5589 274.478 85.5589 272.942V272.933C85.5589 271.397 85.0072 270.446 84.0734 270.446C83.1396 270.446 82.5963 271.397 82.5963 272.933V272.942C82.5963 274.478 83.1396 275.438 84.0734 275.438ZM87.1251 276.002V275.476L89.2813 273.226C90.1089 272.365 90.2999 272.034 90.2999 271.524V271.516C90.2957 270.892 89.8246 270.442 89.1582 270.442C88.3942 270.442 87.8254 270.968 87.8254 271.626V271.647H87.0869V271.622C87.0869 270.561 88.0037 269.776 89.1455 269.776C90.2533 269.776 91.0639 270.518 91.0639 271.478V271.486C91.0639 272.157 90.7541 272.662 89.6293 273.812L88.1735 275.306V275.323H91.1658V276.002H87.1251ZM94.1114 276.104C92.8466 276.104 92.0274 275.399 91.9468 274.432L91.9425 274.381H92.6768L92.6811 274.423C92.7447 275.026 93.2965 275.442 94.1114 275.442C94.9136 275.442 95.4612 274.992 95.4612 274.343V274.334C95.4612 273.583 94.9221 273.163 94.0647 273.163H93.2965V272.517H94.0308C94.7608 272.517 95.2702 272.067 95.2702 271.456V271.448C95.2702 270.807 94.85 270.438 94.1029 270.438C93.3814 270.438 92.8678 270.82 92.8042 271.439L92.7999 271.482H92.0656L92.0699 271.439C92.1675 270.442 92.957 269.776 94.1029 269.776C95.2702 269.776 96.0384 270.425 96.0384 271.354V271.363C96.0384 272.118 95.5036 272.636 94.7396 272.798V272.815C95.6309 272.891 96.2379 273.447 96.2379 274.317V274.326C96.2379 275.348 95.3381 276.104 94.1114 276.104Z" fill="#252322"/>
<path d="M138.053 276.002L140.332 269.877H141.088L143.363 276.002H142.56L141.941 274.249H139.475L138.855 276.002H138.053ZM140.701 270.794L139.708 273.6H141.711L140.718 270.794H140.701ZM146.147 276.087C145.514 276.087 145.022 275.769 144.746 275.255H144.729V276.002H143.991V269.877H144.729V272.326H144.746C145.022 271.817 145.536 271.503 146.16 271.503C147.267 271.503 148.023 272.399 148.023 273.791V273.795C148.023 275.187 147.276 276.087 146.147 276.087ZM146.003 275.433C146.784 275.433 147.267 274.809 147.267 273.795V273.791C147.267 272.785 146.784 272.157 146.003 272.157C145.26 272.157 144.725 272.806 144.725 273.791V273.795C144.725 274.784 145.256 275.433 146.003 275.433ZM148.766 276.002V271.588H149.504V272.335H149.521C149.67 271.826 150.052 271.503 150.548 271.503C150.676 271.503 150.786 271.524 150.845 271.533V272.25C150.786 272.229 150.629 272.208 150.451 272.208C149.878 272.208 149.504 272.607 149.504 273.277V276.002H148.766ZM153.248 276.002V275.476L155.404 273.226C156.232 272.365 156.423 272.034 156.423 271.524V271.516C156.418 270.892 155.947 270.442 155.281 270.442C154.517 270.442 153.948 270.968 153.948 271.626V271.647H153.21V271.622C153.21 270.561 154.126 269.776 155.268 269.776C156.376 269.776 157.187 270.518 157.187 271.478V271.486C157.187 272.157 156.877 272.662 155.752 273.812L154.296 275.306V275.323H157.289V276.002H153.248ZM160.306 276.104C158.897 276.104 158.061 274.886 158.061 272.942V272.933C158.061 270.989 158.897 269.776 160.306 269.776C161.715 269.776 162.56 270.989 162.56 272.933V272.942C162.56 274.886 161.715 276.104 160.306 276.104ZM160.306 275.438C161.24 275.438 161.792 274.478 161.792 272.942V272.933C161.792 271.397 161.24 270.446 160.306 270.446C159.373 270.446 158.829 271.397 158.829 272.933V272.942C158.829 274.478 159.373 275.438 160.306 275.438ZM163.358 276.002V275.476L165.514 273.226C166.342 272.365 166.533 272.034 166.533 271.524V271.516C166.529 270.892 166.057 270.442 165.391 270.442C164.627 270.442 164.058 270.968 164.058 271.626V271.647H163.32V271.622C163.32 270.561 164.237 269.776 165.378 269.776C166.486 269.776 167.297 270.518 167.297 271.478V271.486C167.297 272.157 166.987 272.662 165.862 273.812L164.406 275.306V275.323H167.399V276.002H163.358ZM170.344 276.104C169.08 276.104 168.26 275.399 168.18 274.432L168.175 274.381H168.91L168.914 274.423C168.978 275.026 169.529 275.442 170.344 275.442C171.147 275.442 171.694 274.992 171.694 274.343V274.334C171.694 273.583 171.155 273.163 170.298 273.163H169.529V272.517H170.264C170.994 272.517 171.503 272.067 171.503 271.456V271.448C171.503 270.807 171.083 270.438 170.336 270.438C169.614 270.438 169.101 270.82 169.037 271.439L169.033 271.482H168.299L168.303 271.439C168.4 270.442 169.19 269.776 170.336 269.776C171.503 269.776 172.271 270.425 172.271 271.354V271.363C172.271 272.118 171.737 272.636 170.973 272.798V272.815C171.864 272.891 172.471 273.447 172.471 274.317V274.326C172.471 275.348 171.571 276.104 170.344 276.104Z" fill="#252322"/>
<path d="M215.246 276.002V269.877H216.129L218.251 275.039H218.277L220.399 269.877H221.282V276.002H220.569V271.27H220.543L218.586 276.002H217.941L215.985 271.27H215.959V276.002H215.246ZM223.518 276.087C222.64 276.087 222.05 275.556 222.05 274.754V274.746C222.05 273.994 222.636 273.523 223.65 273.464L224.915 273.392V273.022C224.915 272.483 224.563 272.157 223.947 272.157C223.378 272.157 223.022 272.428 222.937 272.823L222.928 272.861H222.215L222.22 272.815C222.283 272.089 222.916 271.503 223.956 271.503C225 271.503 225.653 272.067 225.653 272.95V276.002H224.915V275.285H224.898C224.639 275.769 224.108 276.087 223.518 276.087ZM222.805 274.754C222.805 275.179 223.153 275.446 223.684 275.446C224.38 275.446 224.915 274.966 224.915 274.326V273.965L223.735 274.037C223.145 274.071 222.805 274.334 222.805 274.746V274.754ZM227.016 277.488C226.871 277.488 226.714 277.471 226.621 277.454V276.851C226.685 276.864 226.77 276.876 226.859 276.876C227.326 276.876 227.585 276.758 227.763 276.257L227.852 276.006L226.214 271.588H227.003L228.221 275.264H228.238L229.461 271.588H230.237L228.514 276.278C228.2 277.123 227.814 277.488 227.016 277.488ZM232.618 276.002V275.476L234.775 273.226C235.602 272.365 235.793 272.034 235.793 271.524V271.516C235.789 270.892 235.318 270.442 234.652 270.442C233.888 270.442 233.319 270.968 233.319 271.626V271.647H232.58V271.622C232.58 270.561 233.497 269.776 234.639 269.776C235.747 269.776 236.557 270.518 236.557 271.478V271.486C236.557 272.157 236.247 272.662 235.123 273.812L233.667 275.306V275.323H236.659V276.002H232.618ZM239.677 276.104C238.268 276.104 237.432 274.886 237.432 272.942V272.933C237.432 270.989 238.268 269.776 239.677 269.776C241.086 269.776 241.931 270.989 241.931 272.933V272.942C241.931 274.886 241.086 276.104 239.677 276.104ZM239.677 275.438C240.611 275.438 241.162 274.478 241.162 272.942V272.933C241.162 271.397 240.611 270.446 239.677 270.446C238.743 270.446 238.2 271.397 238.2 272.933V272.942C238.2 274.478 238.743 275.438 239.677 275.438ZM242.729 276.002V275.476L244.885 273.226C245.712 272.365 245.903 272.034 245.903 271.524V271.516C245.899 270.892 245.428 270.442 244.762 270.442C243.998 270.442 243.429 270.968 243.429 271.626V271.647H242.69V271.622C242.69 270.561 243.607 269.776 244.749 269.776C245.857 269.776 246.667 270.518 246.667 271.478V271.486C246.667 272.157 246.358 272.662 245.233 273.812L243.777 275.306V275.323H246.769V276.002H242.729ZM249.715 276.104C248.45 276.104 247.631 275.399 247.55 274.432L247.546 274.381H248.28L248.285 274.423C248.348 275.026 248.9 275.442 249.715 275.442C250.517 275.442 251.065 274.992 251.065 274.343V274.334C251.065 273.583 250.526 273.163 249.668 273.163H248.9V272.517H249.634C250.364 272.517 250.874 272.067 250.874 271.456V271.448C250.874 270.807 250.453 270.438 249.706 270.438C248.985 270.438 248.471 270.82 248.408 271.439L248.403 271.482H247.669L247.673 271.439C247.771 270.442 248.56 269.776 249.706 269.776C250.874 269.776 251.642 270.425 251.642 271.354V271.363C251.642 272.118 251.107 272.636 250.343 272.798V272.815C251.234 272.891 251.841 273.447 251.841 274.317V274.326C251.841 275.348 250.942 276.104 249.715 276.104Z" fill="#252322"/>
<path d="M296.248 276.104C295.187 276.104 294.588 275.446 294.525 274.567L294.52 274.508H295.284L295.289 274.55C295.335 275.013 295.637 275.399 296.243 275.399C296.923 275.399 297.288 274.996 297.288 274.249V269.877H298.052V274.258C298.052 275.416 297.381 276.104 296.248 276.104ZM300.632 276.087C299.664 276.087 299.104 275.459 299.104 274.453V271.588H299.843V274.321C299.843 275.039 300.178 275.433 300.857 275.433C301.553 275.433 302.007 274.937 302.007 274.185V271.588H302.746V276.002H302.007V275.374H301.99C301.753 275.786 301.303 276.087 300.632 276.087ZM303.709 276.002V271.588H304.448V272.216H304.465C304.703 271.804 305.153 271.503 305.823 271.503C306.791 271.503 307.351 272.131 307.351 273.137V276.002H306.613V273.269C306.613 272.551 306.277 272.157 305.598 272.157C304.902 272.157 304.448 272.653 304.448 273.404V276.002H303.709ZM310.093 276.002V275.476L312.249 273.226C313.077 272.365 313.268 272.034 313.268 271.524V271.516C313.264 270.892 312.792 270.442 312.126 270.442C311.362 270.442 310.793 270.968 310.793 271.626V271.647H310.055V271.622C310.055 270.561 310.972 269.776 312.113 269.776C313.221 269.776 314.032 270.518 314.032 271.478V271.486C314.032 272.157 313.722 272.662 312.597 273.812L311.141 275.306V275.323H314.134V276.002H310.093ZM317.152 276.104C315.742 276.104 314.906 274.886 314.906 272.942V272.933C314.906 270.989 315.742 269.776 317.152 269.776C318.561 269.776 319.405 270.989 319.405 272.933V272.942C319.405 274.886 318.561 276.104 317.152 276.104ZM317.152 275.438C318.085 275.438 318.637 274.478 318.637 272.942V272.933C318.637 271.397 318.085 270.446 317.152 270.446C316.218 270.446 315.674 271.397 315.674 272.933V272.942C315.674 274.478 316.218 275.438 317.152 275.438ZM320.203 276.002V275.476L322.359 273.226C323.187 272.365 323.378 272.034 323.378 271.524V271.516C323.374 270.892 322.903 270.442 322.236 270.442C321.472 270.442 320.904 270.968 320.904 271.626V271.647H320.165V271.622C320.165 270.561 321.082 269.776 322.224 269.776C323.331 269.776 324.142 270.518 324.142 271.478V271.486C324.142 272.157 323.832 272.662 322.707 273.812L321.252 275.306V275.323H324.244V276.002H320.203ZM327.19 276.104C325.925 276.104 325.106 275.399 325.025 274.432L325.021 274.381H325.755L325.759 274.423C325.823 275.026 326.375 275.442 327.19 275.442C327.992 275.442 328.539 274.992 328.539 274.343V274.334C328.539 273.583 328 273.163 327.143 273.163H326.375V272.517H327.109C327.839 272.517 328.348 272.067 328.348 271.456V271.448C328.348 270.807 327.928 270.438 327.181 270.438C326.46 270.438 325.946 270.82 325.882 271.439L325.878 271.482H325.144L325.148 271.439C325.246 270.442 326.035 269.776 327.181 269.776C328.348 269.776 329.117 270.425 329.117 271.354V271.363C329.117 272.118 328.582 272.636 327.818 272.798V272.815C328.709 272.891 329.316 273.447 329.316 274.317V274.326C329.316 275.348 328.416 276.104 327.19 276.104Z" fill="#252322"/>
<path d="M374.912 276.104C373.851 276.104 373.252 275.446 373.189 274.567L373.185 274.508H373.949L373.953 274.55C373.999 275.013 374.301 275.399 374.908 275.399C375.587 275.399 375.952 274.996 375.952 274.249V269.877H376.716V274.258C376.716 275.416 376.045 276.104 374.912 276.104ZM379.297 276.087C378.329 276.087 377.769 275.459 377.769 274.453V271.588H378.507V274.321C378.507 275.039 378.842 275.433 379.521 275.433C380.218 275.433 380.672 274.937 380.672 274.185V271.588H381.41V276.002H380.672V275.374H380.655C380.417 275.786 379.967 276.087 379.297 276.087ZM382.412 276.002V269.877H383.15V276.002H382.412ZM385.948 276.002V275.476L388.104 273.226C388.931 272.365 389.122 272.034 389.122 271.524V271.516C389.118 270.892 388.647 270.442 387.981 270.442C387.217 270.442 386.648 270.968 386.648 271.626V271.647H385.909V271.622C385.909 270.561 386.826 269.776 387.968 269.776C389.076 269.776 389.886 270.518 389.886 271.478V271.486C389.886 272.157 389.577 272.662 388.452 273.812L386.996 275.306V275.323H389.988V276.002H385.948ZM393.006 276.104C391.597 276.104 390.761 274.886 390.761 272.942V272.933C390.761 270.989 391.597 269.776 393.006 269.776C394.415 269.776 395.26 270.989 395.26 272.933V272.942C395.26 274.886 394.415 276.104 393.006 276.104ZM393.006 275.438C393.94 275.438 394.492 274.478 394.492 272.942V272.933C394.492 271.397 393.94 270.446 393.006 270.446C392.072 270.446 391.529 271.397 391.529 272.933V272.942C391.529 274.478 392.072 275.438 393.006 275.438ZM396.058 276.002V275.476L398.214 273.226C399.042 272.365 399.233 272.034 399.233 271.524V271.516C399.228 270.892 398.757 270.442 398.091 270.442C397.327 270.442 396.758 270.968 396.758 271.626V271.647H396.02V271.622C396.02 270.561 396.936 269.776 398.078 269.776C399.186 269.776 399.997 270.518 399.997 271.478V271.486C399.997 272.157 399.687 272.662 398.562 273.812L397.106 275.306V275.323H400.098V276.002H396.058ZM403.044 276.104C401.779 276.104 400.96 275.399 400.879 274.432L400.875 274.381H401.609L401.614 274.423C401.677 275.026 402.229 275.442 403.044 275.442C403.846 275.442 404.394 274.992 404.394 274.343V274.334C404.394 273.583 403.855 273.163 402.997 273.163H402.229V272.517H402.963C403.693 272.517 404.203 272.067 404.203 271.456V271.448C404.203 270.807 403.783 270.438 403.036 270.438C402.314 270.438 401.8 270.82 401.737 271.439L401.733 271.482H400.998L401.002 271.439C401.1 270.442 401.89 269.776 403.036 269.776C404.203 269.776 404.971 270.425 404.971 271.354V271.363C404.971 272.118 404.436 272.636 403.672 272.798V272.815C404.564 272.891 405.171 273.447 405.171 274.317V274.326C405.171 275.348 404.271 276.104 403.044 276.104Z" fill="#252322"/>
<path d="M448.589 276.002L450.868 269.877H451.624L453.899 276.002H453.097L452.477 274.249H450.011L449.391 276.002H448.589ZM451.238 270.794L450.245 273.6H452.248L451.255 270.794H451.238ZM456.272 277.573C455.181 277.573 454.493 277.059 454.349 276.405L454.34 276.367H455.083L455.1 276.405C455.24 276.724 455.66 276.919 456.263 276.919C457.04 276.919 457.481 276.49 457.481 275.807V275.242H457.464C457.201 275.73 456.692 276.045 456.059 276.045C454.947 276.045 454.188 275.149 454.188 273.77V273.765C454.188 272.394 454.956 271.503 456.076 271.503C456.7 271.503 457.193 271.843 457.464 272.335H457.481V271.588H458.22V275.879C458.22 276.902 457.469 277.573 456.272 277.573ZM456.221 275.391C456.972 275.391 457.481 274.75 457.481 273.77V273.765C457.481 272.793 456.968 272.157 456.221 272.157C455.435 272.157 454.943 272.785 454.943 273.765V273.77C454.943 274.771 455.435 275.391 456.221 275.391ZM461.004 276.087C459.778 276.087 458.958 275.2 458.958 273.795V273.786C458.958 272.382 459.782 271.503 461 271.503C462.218 271.503 463.046 272.377 463.046 273.786V273.795C463.046 275.204 462.222 276.087 461.004 276.087ZM461.008 275.433C461.785 275.433 462.29 274.831 462.29 273.795V273.786C462.29 272.751 461.781 272.157 461 272.157C460.232 272.157 459.714 272.755 459.714 273.786V273.795C459.714 274.835 460.227 275.433 461.008 275.433ZM465.592 276.002V275.476L467.749 273.226C468.576 272.365 468.767 272.034 468.767 271.524V271.516C468.763 270.892 468.292 270.442 467.625 270.442C466.861 270.442 466.293 270.968 466.293 271.626V271.647H465.554V271.622C465.554 270.561 466.471 269.776 467.613 269.776C468.72 269.776 469.531 270.518 469.531 271.478V271.486C469.531 272.157 469.221 272.662 468.097 273.812L466.641 275.306V275.323H469.633V276.002H465.592ZM472.651 276.104C471.242 276.104 470.406 274.886 470.406 272.942V272.933C470.406 270.989 471.242 269.776 472.651 269.776C474.06 269.776 474.905 270.989 474.905 272.933V272.942C474.905 274.886 474.06 276.104 472.651 276.104ZM472.651 275.438C473.585 275.438 474.136 274.478 474.136 272.942V272.933C474.136 271.397 473.585 270.446 472.651 270.446C471.717 270.446 471.174 271.397 471.174 272.933V272.942C471.174 274.478 471.717 275.438 472.651 275.438ZM475.703 276.002V275.476L477.859 273.226C478.686 272.365 478.877 272.034 478.877 271.524V271.516C478.873 270.892 478.402 270.442 477.736 270.442C476.972 270.442 476.403 270.968 476.403 271.626V271.647H475.664V271.622C475.664 270.561 476.581 269.776 477.723 269.776C478.831 269.776 479.641 270.518 479.641 271.478V271.486C479.641 272.157 479.332 272.662 478.207 273.812L476.751 275.306V275.323H479.743V276.002H475.703ZM482.689 276.104C481.424 276.104 480.605 275.399 480.524 274.432L480.52 274.381H481.254L481.259 274.423C481.322 275.026 481.874 275.442 482.689 275.442C483.491 275.442 484.039 274.992 484.039 274.343V274.334C484.039 273.583 483.5 273.163 482.642 273.163H481.874V272.517H482.608C483.338 272.517 483.848 272.067 483.848 271.456V271.448C483.848 270.807 483.427 270.438 482.68 270.438C481.959 270.438 481.445 270.82 481.382 271.439L481.377 271.482H480.643L480.647 271.439C480.745 270.442 481.534 269.776 482.68 269.776C483.848 269.776 484.616 270.425 484.616 271.354V271.363C484.616 272.118 484.081 272.636 483.317 272.798V272.815C484.208 272.891 484.815 273.447 484.815 274.317V274.326C484.815 275.348 483.916 276.104 482.689 276.104Z" fill="#252322"/>
<path d="M529.53 276.104C528.206 276.104 527.31 275.455 527.234 274.406L527.23 274.347H527.994L528.002 274.406C528.091 275.022 528.685 275.399 529.573 275.399C530.455 275.399 531.011 275 531.011 274.368V274.364C531.011 273.825 530.659 273.523 529.819 273.337L529.14 273.188C527.943 272.925 527.382 272.386 527.382 271.49V271.486C527.387 270.48 528.278 269.776 529.539 269.776C530.735 269.776 531.61 270.467 531.678 271.469L531.682 271.533H530.918L530.909 271.473C530.816 270.849 530.294 270.48 529.517 270.48C528.698 270.484 528.163 270.875 528.163 271.465V271.469C528.163 271.97 528.533 272.284 529.331 272.458L530.01 272.607C531.266 272.882 531.792 273.392 531.792 274.326V274.33C531.792 275.416 530.931 276.104 529.53 276.104ZM534.39 276.087C533.121 276.087 532.357 275.2 532.357 273.812V273.808C532.357 272.441 533.138 271.503 534.343 271.503C535.549 271.503 536.283 272.399 536.283 273.723V273.994H533.104C533.121 274.903 533.622 275.433 534.407 275.433C534.967 275.433 535.362 275.153 535.489 274.775L535.502 274.737H536.228L536.219 274.78C536.075 275.51 535.353 276.087 534.39 276.087ZM534.339 272.157C533.698 272.157 533.197 272.594 533.117 273.417H535.532C535.46 272.56 534.984 272.157 534.339 272.157ZM537.03 277.488V271.588H537.768V272.335H537.785C538.061 271.821 538.554 271.503 539.186 271.503C540.315 271.503 541.062 272.403 541.062 273.795V273.799C541.062 275.191 540.307 276.087 539.199 276.087C538.575 276.087 538.061 275.773 537.785 275.264H537.768V277.488H537.03ZM539.042 275.433C539.823 275.433 540.307 274.805 540.307 273.799V273.795C540.307 272.781 539.823 272.157 539.042 272.157C538.295 272.157 537.764 272.806 537.764 273.795V273.799C537.764 274.784 538.299 275.433 539.042 275.433ZM543.609 276.002V275.476L545.765 273.226C546.593 272.365 546.784 272.034 546.784 271.524V271.516C546.779 270.892 546.308 270.442 545.642 270.442C544.878 270.442 544.309 270.968 544.309 271.626V271.647H543.571V271.622C543.571 270.561 544.487 269.776 545.629 269.776C546.737 269.776 547.548 270.518 547.548 271.478V271.486C547.548 272.157 547.238 272.662 546.113 273.812L544.657 275.306V275.323H547.649V276.002H543.609ZM550.667 276.104C549.258 276.104 548.422 274.886 548.422 272.942V272.933C548.422 270.989 549.258 269.776 550.667 269.776C552.076 269.776 552.921 270.989 552.921 272.933V272.942C552.921 274.886 552.076 276.104 550.667 276.104ZM550.667 275.438C551.601 275.438 552.153 274.478 552.153 272.942V272.933C552.153 271.397 551.601 270.446 550.667 270.446C549.734 270.446 549.19 271.397 549.19 272.933V272.942C549.19 274.478 549.734 275.438 550.667 275.438ZM553.719 276.002V275.476L555.875 273.226C556.703 272.365 556.894 272.034 556.894 271.524V271.516C556.89 270.892 556.418 270.442 555.752 270.442C554.988 270.442 554.419 270.968 554.419 271.626V271.647H553.681V271.622C553.681 270.561 554.598 269.776 555.739 269.776C556.847 269.776 557.658 270.518 557.658 271.478V271.486C557.658 272.157 557.348 272.662 556.223 273.812L554.767 275.306V275.323H557.76V276.002H553.719ZM560.705 276.104C559.44 276.104 558.621 275.399 558.541 274.432L558.536 274.381H559.271L559.275 274.423C559.339 275.026 559.89 275.442 560.705 275.442C561.508 275.442 562.055 274.992 562.055 274.343V274.334C562.055 273.583 561.516 273.163 560.659 273.163H559.89V272.517H560.625C561.355 272.517 561.864 272.067 561.864 271.456V271.448C561.864 270.807 561.444 270.438 560.697 270.438C559.975 270.438 559.462 270.82 559.398 271.439L559.394 271.482H558.66L558.664 271.439C558.761 270.442 559.551 269.776 560.697 269.776C561.864 269.776 562.632 270.425 562.632 271.354V271.363C562.632 272.118 562.097 272.636 561.334 272.798V272.815C562.225 272.891 562.832 273.447 562.832 274.317V274.326C562.832 275.348 561.932 276.104 560.705 276.104Z" fill="#252322"/>
<path d="M8.20484 25.1594V23.8861H5.12764V23.1943L7.81436 19.0347H8.94337V23.2155H9.80923V23.8861H8.94337V25.1594H8.20484ZM5.88315 23.2155H8.20484V19.6884H8.17938L5.88315 23.1985V23.2155ZM12.6827 25.2613C11.2736 25.2613 10.4374 24.0431 10.4374 22.0992V22.0907C10.4374 20.1468 11.2736 18.9329 12.6827 18.9329C14.0919 18.9329 14.9365 20.1468 14.9365 22.0907V22.0992C14.9365 24.0431 14.0919 25.2613 12.6827 25.2613ZM12.6827 24.5949C13.6165 24.5949 14.1683 23.6357 14.1683 22.0992V22.0907C14.1683 20.5542 13.6165 19.6035 12.6827 19.6035C11.7489 19.6035 11.2056 20.5542 11.2056 22.0907V22.0992C11.2056 23.6357 11.7489 24.5949 12.6827 24.5949ZM17.9543 25.2613C16.5451 25.2613 15.709 24.0431 15.709 22.0992V22.0907C15.709 20.1468 16.5451 18.9329 17.9543 18.9329C19.3634 18.9329 20.2081 20.1468 20.2081 22.0907V22.0992C20.2081 24.0431 19.3634 25.2613 17.9543 25.2613ZM17.9543 24.5949C18.888 24.5949 19.4398 23.6357 19.4398 22.0992V22.0907C19.4398 20.5542 18.888 19.6035 17.9543 19.6035C17.0205 19.6035 16.4772 20.5542 16.4772 22.0907V22.0992C16.4772 23.6357 17.0205 24.5949 17.9543 24.5949ZM21.1885 25.1594V19.0347H21.9525V22.0398H21.978L24.5756 19.0347H25.5348L23.141 21.7469L25.7598 25.1594H24.7835L22.6062 22.2987L21.9525 23.016V25.1594H21.1885Z" fill="#252322"/>
<path d="M6.46631 53.8226C5.20148 53.8226 4.3823 53.118 4.30166 52.1503L4.29741 52.0993H5.0317L5.03594 52.1418C5.09961 52.7445 5.65138 53.1604 6.46631 53.1604C7.26851 53.1604 7.81604 52.7105 7.81604 52.0611V52.0526C7.81604 51.3014 7.277 50.8812 6.41962 50.8812H5.65138V50.236H6.38567C7.11571 50.236 7.62504 49.7861 7.62504 49.1749V49.1664C7.62504 48.5255 7.20484 48.1563 6.45782 48.1563C5.73627 48.1563 5.2227 48.5383 5.15903 49.158L5.15479 49.2004H4.4205L4.42475 49.158C4.52237 48.1605 5.31183 47.4941 6.45782 47.4941C7.62504 47.4941 8.39328 48.1435 8.39328 49.0731V49.0816C8.39328 49.8371 7.85848 50.3549 7.09449 50.5162V50.5331C7.98581 50.6095 8.59277 51.1656 8.59277 52.0357V52.0442C8.59277 53.0671 7.69295 53.8226 6.46631 53.8226ZM11.6827 53.8226C10.2736 53.8226 9.43741 52.6044 9.43741 50.6605V50.652C9.43741 48.708 10.2736 47.4941 11.6827 47.4941C13.0919 47.4941 13.9365 48.708 13.9365 50.652V50.6605C13.9365 52.6044 13.0919 53.8226 11.6827 53.8226ZM11.6827 53.1562C12.6165 53.1562 13.1683 52.197 13.1683 50.6605V50.652C13.1683 49.1155 12.6165 48.1648 11.6827 48.1648C10.7489 48.1648 10.2056 49.1155 10.2056 50.652V50.6605C10.2056 52.197 10.7489 53.1562 11.6827 53.1562ZM16.9543 53.8226C15.5451 53.8226 14.709 52.6044 14.709 50.6605V50.652C14.709 48.708 15.5451 47.4941 16.9543 47.4941C18.3634 47.4941 19.2081 48.708 19.2081 50.652V50.6605C19.2081 52.6044 18.3634 53.8226 16.9543 53.8226ZM16.9543 53.1562C17.888 53.1562 18.4398 52.197 18.4398 50.6605V50.652C18.4398 49.1155 17.888 48.1648 16.9543 48.1648C16.0205 48.1648 15.4772 49.1155 15.4772 50.652V50.6605C15.4772 52.197 16.0205 53.1562 16.9543 53.1562ZM20.1885 53.7207V47.596H20.9525V50.6011H20.978L23.5756 47.596H24.5348L22.141 50.3082L24.7598 53.7207H23.7835L21.6062 50.86L20.9525 51.5773V53.7207H20.1885Z" fill="#252322"/>
<path d="M4.62424 82.282V81.7557L6.7804 79.5061C7.60806 78.6445 7.79906 78.3134 7.79906 77.8041V77.7956C7.79482 77.1717 7.32369 76.7218 6.65731 76.7218C5.89332 76.7218 5.32456 77.2481 5.32456 77.906V77.9272H4.58604V77.9017C4.58604 76.8406 5.50283 76.0554 6.64458 76.0554C7.75237 76.0554 8.56306 76.7982 8.56306 77.7574V77.7659C8.56306 78.4365 8.25321 78.9416 7.12844 80.0919L5.67261 81.5859V81.6029H8.66492V82.282H4.62424ZM11.6827 82.3838C10.2736 82.3838 9.43741 81.1657 9.43741 79.2218V79.2133C9.43741 77.2693 10.2736 76.0554 11.6827 76.0554C13.0919 76.0554 13.9365 77.2693 13.9365 79.2133V79.2218C13.9365 81.1657 13.0919 82.3838 11.6827 82.3838ZM11.6827 81.7175C12.6165 81.7175 13.1683 80.7582 13.1683 79.2218V79.2133C13.1683 77.6768 12.6165 76.726 11.6827 76.726C10.7489 76.726 10.2056 77.6768 10.2056 79.2133V79.2218C10.2056 80.7582 10.7489 81.7175 11.6827 81.7175ZM16.9543 82.3838C15.5451 82.3838 14.709 81.1657 14.709 79.2218V79.2133C14.709 77.2693 15.5451 76.0554 16.9543 76.0554C18.3634 76.0554 19.2081 77.2693 19.2081 79.2133V79.2218C19.2081 81.1657 18.3634 82.3838 16.9543 82.3838ZM16.9543 81.7175C17.888 81.7175 18.4398 80.7582 18.4398 79.2218V79.2133C18.4398 77.6768 17.888 76.726 16.9543 76.726C16.0205 76.726 15.4772 77.6768 15.4772 79.2133V79.2218C15.4772 80.7582 16.0205 81.7175 16.9543 81.7175ZM20.1885 82.282V76.1573H20.9525V79.1623H20.978L23.5756 76.1573H24.5348L22.141 78.8695L24.7598 82.282H23.7835L21.6062 79.4212L20.9525 80.1386V82.282H20.1885Z" fill="#252322"/>
<path d="M7.49796 110.843V105.529H7.48098L5.85962 106.658V105.89L7.48947 104.719H8.23649V110.843H7.49796ZM11.9249 110.945C10.5157 110.945 9.67959 109.727 9.67959 107.783V107.775C9.67959 105.831 10.5157 104.617 11.9249 104.617C13.334 104.617 14.1787 105.831 14.1787 107.775V107.783C14.1787 109.727 13.334 110.945 11.9249 110.945ZM11.9249 110.279C12.8587 110.279 13.4104 109.32 13.4104 107.783V107.775C13.4104 106.238 12.8587 105.287 11.9249 105.287C10.9911 105.287 10.4478 106.238 10.4478 107.775V107.783C10.4478 109.32 10.9911 110.279 11.9249 110.279ZM17.1965 110.945C15.7873 110.945 14.9512 109.727 14.9512 107.783V107.775C14.9512 105.831 15.7873 104.617 17.1965 104.617C18.6056 104.617 19.4502 105.831 19.4502 107.775V107.783C19.4502 109.727 18.6056 110.945 17.1965 110.945ZM17.1965 110.279C18.1302 110.279 18.682 109.32 18.682 107.783V107.775C18.682 106.238 18.1302 105.287 17.1965 105.287C16.2627 105.287 15.7194 106.238 15.7194 107.775V107.783C15.7194 109.32 16.2627 110.279 17.1965 110.279ZM20.4307 110.843V104.719H21.1947V107.724H21.2202L23.8178 104.719H24.777L22.3831 107.431L25.002 110.843H24.0257L21.8483 107.983L21.1947 108.7V110.843H20.4307Z" fill="#252322"/>
<path d="M15.76 139.507C14.3508 139.507 13.5147 138.288 13.5147 136.344V136.336C13.5147 134.392 14.3508 133.178 15.76 133.178C17.1691 133.178 18.0137 134.392 18.0137 136.336V136.344C18.0137 138.288 17.1691 139.507 15.76 139.507ZM15.76 138.84C16.6937 138.84 17.2455 137.881 17.2455 136.344V136.336C17.2455 134.799 16.6937 133.849 15.76 133.849C14.8262 133.849 14.2829 134.799 14.2829 136.336V136.344C14.2829 137.881 14.8262 138.84 15.76 138.84ZM18.9942 139.405V133.28H19.7582V136.285H19.7837L22.3813 133.28H23.3405L20.9466 135.992L23.5654 139.405H22.5892L20.4118 136.544L19.7582 137.261V139.405H18.9942Z" fill="#252322"/>
<path d="M2.74698 165.827V165.139H5.46341V165.827H2.74698ZM7.77238 167.966V162.652H7.7554L6.13403 163.781V163.013L7.76389 161.841H8.51091V167.966H7.77238ZM12.1993 168.068C10.7902 168.068 9.95401 166.85 9.95401 164.906V164.897C9.95401 162.953 10.7902 161.739 12.1993 161.739C13.6085 161.739 14.4531 162.953 14.4531 164.897V164.906C14.4531 166.85 13.6085 168.068 12.1993 168.068ZM12.1993 167.401C13.1331 167.401 13.6849 166.442 13.6849 164.906V164.897C13.6849 163.361 13.1331 162.41 12.1993 162.41C11.2655 162.41 10.7222 163.361 10.7222 164.897V164.906C10.7222 166.442 11.2655 167.401 12.1993 167.401ZM17.4709 168.068C16.0617 168.068 15.2256 166.85 15.2256 164.906V164.897C15.2256 162.953 16.0617 161.739 17.4709 161.739C18.88 161.739 19.7247 162.953 19.7247 164.897V164.906C19.7247 166.85 18.88 168.068 17.4709 168.068ZM17.4709 167.401C18.4046 167.401 18.9564 166.442 18.9564 164.906V164.897C18.9564 163.361 18.4046 162.41 17.4709 162.41C16.5371 162.41 15.9938 163.361 15.9938 164.897V164.906C15.9938 166.442 16.5371 167.401 17.4709 167.401ZM20.7051 167.966V161.841H21.4691V164.846H21.4946L24.0922 161.841H25.0514L22.6576 164.553L25.2764 167.966H24.3001L22.1228 165.105L21.4691 165.823V167.966H20.7051Z" fill="#252322"/>
<path d="M1.18103 194.388V193.7H3.89745V194.388H1.18103ZM4.89914 196.527V196.001L7.0553 193.751C7.88296 192.89 8.07396 192.559 8.07396 192.049V192.041C8.06972 191.417 7.59859 190.967 6.93221 190.967C6.16822 190.967 5.59947 191.493 5.59947 192.151V192.172H4.86094V192.147C4.86094 191.086 5.77773 190.301 6.91948 190.301C8.02728 190.301 8.83796 191.043 8.83796 192.003V192.011C8.83796 192.682 8.52812 193.187 7.40335 194.337L5.94751 195.831V195.848H8.93983V196.527H4.89914ZM11.9576 196.629C10.5485 196.629 9.71231 195.411 9.71231 193.467V193.459C9.71231 191.515 10.5485 190.301 11.9576 190.301C13.3668 190.301 14.2114 191.515 14.2114 193.459V193.467C14.2114 195.411 13.3668 196.629 11.9576 196.629ZM11.9576 195.963C12.8914 195.963 13.4432 195.003 13.4432 193.467V193.459C13.4432 191.922 12.8914 190.971 11.9576 190.971C11.0238 190.971 10.4806 191.922 10.4806 193.459V193.467C10.4806 195.003 11.0238 195.963 11.9576 195.963ZM17.2292 196.629C15.82 196.629 14.9839 195.411 14.9839 193.467V193.459C14.9839 191.515 15.82 190.301 17.2292 190.301C18.6383 190.301 19.483 191.515 19.483 193.459V193.467C19.483 195.411 18.6383 196.629 17.2292 196.629ZM17.2292 195.963C18.163 195.963 18.7147 195.003 18.7147 193.467V193.459C18.7147 191.922 18.163 190.971 17.2292 190.971C16.2954 190.971 15.7521 191.922 15.7521 193.459V193.467C15.7521 195.003 16.2954 195.963 17.2292 195.963ZM20.4634 196.527V190.403H21.2274V193.408H21.2529L23.8505 190.403H24.8097L22.4159 193.115L25.0347 196.527H24.0585L21.8811 193.666L21.2274 194.384V196.527H20.4634Z" fill="#252322"/>
<path d="M0.960315 222.949V222.262H3.67674V222.949H0.960315ZM6.74121 225.19C5.47638 225.19 4.6572 224.486 4.57656 223.518L4.57232 223.467H5.3066L5.31085 223.51C5.37451 224.112 5.92629 224.528 6.74121 224.528C7.54341 224.528 8.09094 224.078 8.09094 223.429V223.42C8.09094 222.669 7.5519 222.249 6.69453 222.249H5.92629V221.604H6.66057C7.39061 221.604 7.89994 221.154 7.89994 220.543V220.534C7.89994 219.893 7.47974 219.524 6.73273 219.524C6.01117 219.524 5.4976 219.906 5.43393 220.526L5.42969 220.568H4.6954L4.69965 220.526C4.79727 219.528 5.58673 218.862 6.73273 218.862C7.89994 218.862 8.66818 219.511 8.66818 220.441V220.449C8.66818 221.205 8.13338 221.723 7.36939 221.884V221.901C8.26072 221.977 8.86767 222.533 8.86767 223.403V223.412C8.86767 224.435 7.96785 225.19 6.74121 225.19ZM11.9576 225.19C10.5485 225.19 9.71231 223.972 9.71231 222.028V222.02C9.71231 220.076 10.5485 218.862 11.9576 218.862C13.3668 218.862 14.2114 220.076 14.2114 222.02V222.028C14.2114 223.972 13.3668 225.19 11.9576 225.19ZM11.9576 224.524C12.8914 224.524 13.4432 223.565 13.4432 222.028V222.02C13.4432 220.483 12.8914 219.533 11.9576 219.533C11.0238 219.533 10.4805 220.483 10.4805 222.02V222.028C10.4805 223.565 11.0238 224.524 11.9576 224.524ZM17.2292 225.19C15.82 225.19 14.9839 223.972 14.9839 222.028V222.02C14.9839 220.076 15.82 218.862 17.2292 218.862C18.6383 218.862 19.483 220.076 19.483 222.02V222.028C19.483 223.972 18.6383 225.19 17.2292 225.19ZM17.2292 224.524C18.163 224.524 18.7147 223.565 18.7147 222.028V222.02C18.7147 220.483 18.163 219.533 17.2292 219.533C16.2954 219.533 15.7521 220.483 15.7521 222.02V222.028C15.7521 223.565 16.2954 224.524 17.2292 224.524ZM20.4634 225.089V218.964H21.2274V221.969H21.2529L23.8505 218.964H24.8097L22.4159 221.676L25.0347 225.089H24.0585L21.8811 222.228L21.2274 222.945V225.089H20.4634Z" fill="#252322"/>
<path d="M0.849959 251.511V250.823H3.56639V251.511H0.849959ZM7.47974 253.65V252.376H4.40254V251.685L7.08926 247.525H8.21827V251.706H9.08413V252.376H8.21827V253.65H7.47974ZM5.15805 251.706H7.47974V248.179H7.45428L5.15805 251.689V251.706ZM11.9576 253.752C10.5485 253.752 9.71231 252.533 9.71231 250.59V250.581C9.71231 248.637 10.5485 247.423 11.9576 247.423C13.3668 247.423 14.2114 248.637 14.2114 250.581V250.59C14.2114 252.533 13.3668 253.752 11.9576 253.752ZM11.9576 253.085C12.8914 253.085 13.4432 252.126 13.4432 250.59V250.581C13.4432 249.045 12.8914 248.094 11.9576 248.094C11.0238 248.094 10.4805 249.045 10.4805 250.581V250.59C10.4805 252.126 11.0238 253.085 11.9576 253.085ZM17.2292 253.752C15.82 253.752 14.9839 252.533 14.9839 250.59V250.581C14.9839 248.637 15.82 247.423 17.2292 247.423C18.6383 247.423 19.483 248.637 19.483 250.581V250.59C19.483 252.533 18.6383 253.752 17.2292 253.752ZM17.2292 253.085C18.1629 253.085 18.7147 252.126 18.7147 250.59V250.581C18.7147 249.045 18.1629 248.094 17.2292 248.094C16.2954 248.094 15.7521 249.045 15.7521 250.581V250.59C15.7521 252.126 16.2954 253.085 17.2292 253.085ZM20.4634 253.65V247.525H21.2274V250.53H21.2529L23.8505 247.525H24.8097L22.4159 250.237L25.0347 253.65H24.0584L21.8811 250.789L21.2274 251.506V253.65H20.4634Z" fill="#252322"/>
<rect x="59" y="176" width="45" height="87" fill="url(#paint0_linear_528_420)"/>
<rect x="132" y="150" width="46" height="113" fill="url(#paint1_linear_528_420)"/>
<rect x="209" y="119" width="47" height="144" fill="url(#paint2_linear_528_420)"/>
<rect x="291" y="74" width="47" height="189" fill="url(#paint3_linear_528_420)"/>
<rect x="366" y="42" width="46" height="221" fill="url(#paint4_linear_528_420)"/>
<rect x="447" y="27" width="46" height="236" fill="url(#paint5_linear_528_420)"/>
<rect x="527" y="16" width="45" height="247" fill="url(#paint6_linear_528_420)"/>
<path opacity="0.8" d="M77.9175 121.785L144.999 110.608L211.591 107.14L277.694 80.5475L344.776 10.0202L410.878 19.6551H477.47L543.083 3.08313" stroke="#237DB9" stroke-width="2.5431"/>
<ellipse cx="77.9172" cy="121.785" rx="3.91718" ry="3.08316" fill="#237DB9"/>
<ellipse cx="155.917" cy="110.083" rx="3.91718" ry="3.08316" fill="#237DB9"/>
<ellipse cx="230.917" cy="100.083" rx="3.91718" ry="3.08316" fill="#237DB9"/>
<ellipse cx="307.917" cy="48.0832" rx="3.91718" ry="3.08316" fill="#237DB9"/>
<ellipse cx="388.917" cy="16.0832" rx="3.91718" ry="3.08316" fill="#237DB9"/>
<ellipse cx="469.917" cy="19.0832" rx="3.91718" ry="3.08316" fill="#237DB9"/>
<ellipse cx="543.083" cy="3.08316" rx="3.91718" ry="3.08316" fill="#237DB9"/>
<defs>
<linearGradient id="paint0_linear_528_420" x1="61.7979" y1="179.706" x2="109.368" y2="183.524" gradientUnits="userSpaceOnUse">
<stop stop-color="#EC7404"/>
<stop offset="1" stop-color="#FF9838" stop-opacity="0.85"/>
</linearGradient>
<linearGradient id="paint1_linear_528_420" x1="134.86" y1="154.814" x2="183.606" y2="157.893" gradientUnits="userSpaceOnUse">
<stop stop-color="#EC7404"/>
<stop offset="1" stop-color="#FF9838" stop-opacity="0.85"/>
</linearGradient>
<linearGradient id="paint2_linear_528_420" x1="211.922" y1="125.134" x2="261.798" y2="127.66" gradientUnits="userSpaceOnUse">
<stop stop-color="#EC7404"/>
<stop offset="1" stop-color="#FF9838" stop-opacity="0.85"/>
</linearGradient>
<linearGradient id="paint3_linear_528_420" x1="293.922" y1="82.0515" x2="343.852" y2="83.9779" gradientUnits="userSpaceOnUse">
<stop stop-color="#EC7404"/>
<stop offset="1" stop-color="#FF9838" stop-opacity="0.85"/>
</linearGradient>
<linearGradient id="paint4_linear_528_420" x1="368.86" y1="51.4147" x2="417.749" y2="52.9935" gradientUnits="userSpaceOnUse">
<stop stop-color="#EC7404"/>
<stop offset="1" stop-color="#FF9838" stop-opacity="0.85"/>
</linearGradient>
<linearGradient id="paint5_linear_528_420" x1="449.86" y1="37.0537" x2="498.755" y2="38.5324" gradientUnits="userSpaceOnUse">
<stop stop-color="#EC7404"/>
<stop offset="1" stop-color="#FF9838" stop-opacity="0.85"/>
</linearGradient>
<linearGradient id="paint6_linear_528_420" x1="529.798" y1="26.5224" x2="577.636" y2="27.8745" gradientUnits="userSpaceOnUse">
<stop stop-color="#EC7404"/>
<stop offset="1" stop-color="#FF9838" stop-opacity="0.85"/>
</linearGradient>
</defs>
</svg>
