<svg width="32" height="32" viewBox="0 0 32 32" fill="none" xmlns="http://www.w3.org/2000/svg">
<path d="M2 16C2 17.8385 2.36212 19.659 3.06569 21.3576C3.76925 23.0561 4.80048 24.5995 6.1005 25.8995C7.40053 27.1995 8.94387 28.2307 10.6424 28.9343C12.341 29.6379 14.1615 30 16 30C17.8385 30 19.659 29.6379 21.3576 28.9343C23.0561 28.2307 24.5995 27.1995 25.8995 25.8995C27.1995 24.5995 28.2307 23.0561 28.9343 21.3576C29.6379 19.659 30 17.8385 30 16C30 12.287 28.525 8.72601 25.8995 6.10051C23.274 3.475 19.713 2 16 2C12.287 2 8.72601 3.475 6.1005 6.10051C3.475 8.72601 2 12.287 2 16Z" stroke="url(#paint0_linear_180_530)" stroke-width="3.11111" stroke-linecap="round" stroke-linejoin="round"/>
<path d="M16 8.22229V16.0001L20.6667 20.6667" stroke="url(#paint1_linear_180_530)" stroke-width="3.11111" stroke-linecap="round" stroke-linejoin="round"/>
<defs>
<linearGradient id="paint0_linear_180_530" x1="3.74093" y1="3.19282" x2="32.8302" y2="7.70598" gradientUnits="userSpaceOnUse">
<stop stop-color="#EC7404"/>
<stop offset="1" stop-color="#FF9838" stop-opacity="0.85"/>
</linearGradient>
<linearGradient id="paint1_linear_180_530" x1="16.2902" y1="8.75243" x2="21.2383" y2="9.04032" gradientUnits="userSpaceOnUse">
<stop stop-color="#EC7404"/>
<stop offset="1" stop-color="#FF9838" stop-opacity="0.85"/>
</linearGradient>
</defs>
</svg>
